<svg xmlns="http://www.w3.org/2000/svg" viewBox="0 0 511.999 511.999" enable-background="new 0 0 511.999 511.999"><path d="M270.365 442.023c-51.341 0-102.682-19.541-141.764-58.629-37.809-37.809-58.64-88.16-58.64-141.769s20.83-103.954 58.64-141.764c110.275-110.286 356.646-99.876 367.034-99.392 8.604.413 15.489 7.293 15.892 15.897.5 10.431 10.899 256.743-99.387 367.028-39.081 39.082-90.422 58.629-141.775 58.629z" fill="#88CC2A"/><g fill="#7FB335"><path d="M270.365 442.023c51.352 0 102.693-19.547 141.775-58.629 110.286-110.286 99.887-356.596 99.387-367.028-.202-4.304-2.026-8.176-4.874-11.023l-378.051 378.051c39.082 39.088 90.423 58.629 141.763 58.629zM294.002 234.706c-9.224 0-16.708-7.478-16.708-16.708v-118.143c0-9.229 7.484-16.708 16.708-16.708 9.224 0 16.708 7.478 16.708 16.708v118.144c0 9.229-7.484 16.707-16.708 16.707z"/></g><path d="M412.141 234.706h-118.139c-9.224 0-16.708-7.478-16.708-16.708 0-9.229 7.484-16.708 16.708-16.708h118.139c9.224 0 16.708 7.478 16.708 16.708 0 9.23-7.484 16.708-16.708 16.708z" fill="#73A62A"/><path d="M187.676 341.032c-9.224 0-16.708-7.478-16.708-16.708v-118.143c0-9.229 7.484-16.708 16.708-16.708 9.224 0 16.708 7.478 16.708 16.708v118.144c0 9.229-7.484 16.707-16.708 16.707z" fill="#7FB335"/><path d="M305.816 341.032h-118.14c-9.224 0-16.708-7.478-16.708-16.708 0-9.229 7.484-16.708 16.708-16.708h118.138c9.224 0 16.708 7.478 16.708 16.708 0 9.23-7.483 16.708-16.706 16.708z" fill="#73A62A"/><path d="M16.707 511.996c-4.275 0-8.55-1.632-11.812-4.895-6.526-6.52-6.526-17.104 0-23.626l383.621-383.614c6.526-6.526 17.1-6.526 23.626 0 6.526 6.52 6.526 17.104 0 23.626l-383.623 383.615c-3.262 3.263-7.537 4.894-11.812 4.894z" fill="#7FB335"/><path d="M16.707 511.996c4.275 0 8.55-1.632 11.812-4.895l383.622-383.615c6.526-6.52 6.526-17.104 0-23.626l-.002-.001-407.245 407.243c3.263 3.263 7.538 4.894 11.813 4.894z" fill="#73A62A"/></svg>