<svg xmlns="http://www.w3.org/2000/svg" viewBox="0 0 512.001 512.001" enable-background="new 0 0 512.001 512.001"><path d="M321.583 0c-10.803 0-19.561 8.757-19.561 19.561v133.189h39.121v-133.189c.001-10.804-8.758-19.561-19.56-19.561z" fill="#666"/><path d="M327.049.789c-1.737-.505-3.567-.789-5.466-.789-10.803 0-19.561 8.757-19.561 19.561v133.189h10.931v-133.189c0-8.904 5.955-16.405 14.096-18.772z" fill="#4D4D4D"/><g fill="#F7B239"><path d="M200.575 115.212h-20.328c-5.189 0-9.396 4.207-9.396 9.396v20.912h39.121v-20.912c0-5.19-4.208-9.396-9.397-9.396zM266.161 115.212h-20.328c-5.189 0-9.396 4.207-9.396 9.396v20.912h39.121v-20.912c0-5.19-4.208-9.396-9.397-9.396z"/></g><g fill="#E09B2D"><path d="M246.058 115.212h-.226c-5.189 0-9.396 4.207-9.396 9.396v20.912h9.623v-30.308h-.001zM180.472 115.212h-.226c-5.189 0-9.396 4.207-9.396 9.396v20.912h9.623v-30.308h-.001z"/></g><path d="M372.214 172.185v307.967c0 17.582-14.256 31.849-31.849 31.849h-168.74c-17.582 0-31.838-14.268-31.838-31.849v-307.967c0-17.582 14.256-31.838 31.838-31.838h168.74c17.593-.001 31.849 14.255 31.849 31.838z" fill="#808080"/><path d="M196.939 512h-25.314c-17.582 0-31.838-14.268-31.838-31.849v-307.967c0-17.582 14.256-31.838 31.838-31.838h25.314c-17.582 0-31.838 14.256-31.838 31.838v307.967c0 17.581 14.256 31.849 31.838 31.849z" fill="#666"/><path fill="#F2F2F2" d="M176.035 178.313h159.938v87.448h-159.938z"/><path fill="#fff" d="M335.969 178.317v87.448h-105.248l55.288-87.448z"/><g fill="#4D4D4D"><path d="M183.882 404.988h144.22v17.259h-144.22zM183.882 436.63h144.22v17.259h-144.22zM183.882 373.345h144.22v17.259h-144.22z"/></g><g fill="#F7B239"><circle cx="318.081" cy="314.134" r="17.885"/><circle cx="256.614" cy="314.134" r="17.885"/></g><path d="M341.723 271.519h-171.444v-98.954h171.444v98.954zm-159.938-11.506h148.431v-75.942h-148.431v75.942z" fill="#666"/></svg>