<svg xmlns="http://www.w3.org/2000/svg" viewBox="0 0 370 370" enable-background="new 0 0 370 370"><g><path fill="#5A8BB0" d="M281.801 30h38.199v-30h-61.801l-15.828 70h30.574z"/><path d="M55 70c0-22.092 17.908-40 40-40v-30c-38.66 0-70 31.34-70 70s31.34 70 70 70v-30c-22.092 0-40-17.908-40-40z" fill="#FFDA44"/><path d="M95 110v30c14.713 0 28.358-4.549 39.627-12.303l-16.982-24.728c-6.44 4.431-14.238 7.031-22.645 7.031z" fill="#FF9811"/><path d="M135 70h30c0-38.66-31.34-70-70-70v30c22.092 0 40 17.908 40 40z" fill="#FF9811"/><path d="M95 30c-22.092 0-40 17.908-40 40s17.908 40 40 40c8.407 0 16.205-2.6 22.645-7.03l-22.645-32.97h40c0-22.092-17.908-40-40-40z" fill="#fff"/><path fill="#FF5023" d="M220 100h-104.396l89.457 130.25h14.939z"/><path fill="#BF3C1A" d="M220 230.25h14.939l89.457-130.25h-104.396z"/><path d="M235 230.25h-.061l110.061-160.25h-250l22.645 32.97 16.982 24.728 70.434 102.553h-.061v109.749h-55v30h140v-30h-55v-109.75zm-119.396-130.25h208.792l-89.457 130.25h-29.878l-89.457-130.25z" fill="#AED5F3"/></g></svg>