<svg xmlns="http://www.w3.org/2000/svg" viewBox="0 0 512.001 512.001" enable-background="new 0 0 512.001 512.001"><path d="M282.915 211.33c-3.863 4.077-9.324 6.225-14.941 5.877-1.943-.123-48.129-3.298-95.369-28.754-44.641-24.056-98.511-72.868-101.639-168.804-.172-5.232 1.831-10.3 5.531-14.002 5.644-5.647 12.268-5.647 15.097-5.647h.001c2.001 0 49.045.338 97.518 29.403 25.163 15.089 46.083 35.148 62.181 59.622 19.446 29.566 31.786 65.589 36.678 107.066.658 5.58-1.195 11.161-5.057 15.239z" fill="#6DC82A"/><path d="M251.887 89.963c-7.938 14.65-14.633 31.15-19.437 49.738-4.32 12.902-10.917 35.57-16.362 66.933 28.719 8.988 50.563 10.49 51.886 10.573 5.618.349 11.078-1.799 14.941-5.877 3.862-4.078 5.715-9.659 5.056-15.237-4.841-41.045-16.988-76.739-36.084-106.13z" fill="#5EAC24"/><path d="M266.674 178.855l-40.788-39.775-10.756-53.598c-.851-4.248-4.984-6.997-9.233-6.147-4.248.852-6.998 4.987-6.147 9.233l6.245 31.116-22.495-21.936-10.904-54.335c-.851-4.248-4.986-6.994-9.233-6.147-4.248.852-6.998 4.986-6.147 9.233l6.392 31.852-52.492-51.184c-3.104-3.024-8.066-2.96-11.091.14-3.024 3.102-2.961 8.067.14 11.09l57.719 56.284-40.264-.688c-4.327-.118-7.901 3.377-7.976 7.708-.073 4.331 3.377 7.901 7.708 7.976l56.907.973 26.775 26.11-40.88-.697c-4.292-.096-7.901 3.377-7.976 7.708-.073 4.331 3.377 7.901 7.708 7.976l57.522.982 38.311 37.358c1.526 1.487 3.501 2.227 5.474 2.227 2.04 0 4.078-.792 5.617-2.368 3.027-3.103 2.965-8.068-.136-11.091z" fill="#4E901E"/><path d="M467.824 5.914c-3.863-4.077-9.324-6.225-14.941-5.877-1.943.123-48.129 3.298-95.369 28.754-36.301 19.561-78.701 55.493-94.961 119.819-8.881 26.153-28.446 97.078-23.87 203.868.396 9.239 8.01 16.463 17.17 16.462.248 0 .498-.005.749-.016 9.489-.407 16.852-8.428 16.446-17.919-2.371-55.323 2.184-100.55 8.054-133.923 13.209-.757 52.566-5.045 92.92-29.241 25.163-15.089 46.083-35.148 62.181-59.622 19.446-29.566 31.786-65.589 36.678-107.066.658-5.58-1.195-11.161-5.057-15.239z" fill="#91DC5A"/><path d="M443.129 27.307c-3.026-3.101-7.991-3.164-11.091-.14l-52.488 51.183 6.392-31.851c.851-4.247-1.899-8.38-6.147-9.233-4.242-.848-8.381 1.899-9.233 6.147l-10.905 54.335-22.494 21.936 6.245-31.116c.852-4.247-1.899-8.38-6.147-9.233-4.246-.85-8.381 1.899-9.233 6.147l-10.757 53.599-40.789 39.775c-3.102 3.024-3.163 7.989-.14 11.09 1.538 1.576 3.575 2.367 5.617 2.367 1.974 0 3.95-.74 5.474-2.227l38.311-37.358 57.524-.982c4.331-.074 7.781-3.644 7.708-7.976-.073-4.286-3.57-7.709-7.839-7.709l-.137.001-40.881.697 26.775-26.11 56.907-.973c4.331-.074 7.781-3.644 7.708-7.976-.073-4.286-3.57-7.709-7.839-7.709l-.137.001-40.264.688 57.719-56.284c3.103-3.023 3.165-7.988.141-11.089z" fill="#5EAC24"/><path d="M449.193 410.125c-7.91 0-15.298 2.228-21.577 6.087-9.274-30.342-37.491-52.414-70.869-52.414-3.704 0-7.341.28-10.898.805-15.13-34.614-49.655-58.813-89.846-58.813s-74.716 24.199-89.846 58.813c-3.558-.525-7.196-.805-10.898-.805-33.378 0-61.594 22.072-70.869 52.414-6.279-3.859-13.666-6.087-21.577-6.087-22.795 0-41.275 18.48-41.275 41.275s18.48 41.275 41.275 41.275c12.216 0 23.188-5.31 30.744-13.744 13.282 19.931 35.954 33.07 61.701 33.07 20.851 0 39.68-8.625 53.144-22.487 14.097 7.848 30.321 12.334 47.601 12.334 17.279 0 33.504-4.487 47.601-12.334 13.466 13.862 32.293 22.487 53.144 22.487 25.747 0 48.42-13.137 61.701-33.07 7.557 8.434 18.529 13.744 30.744 13.744 22.795 0 41.275-18.48 41.275-41.275 0-22.796-18.48-41.275-41.275-41.275z" fill="#CC7400"/><g fill="#AA6100"><path d="M309.888 345.918c9.748 0 19.154 1.443 28.042 4.092-17.525-26.63-47.666-44.221-81.928-44.221-40.192 0-74.716 24.199-89.846 58.813-3.558-.525-7.196-.805-10.898-.805-33.378 0-61.594 22.072-70.869 52.414-6.279-3.859-13.666-6.087-21.577-6.087-22.795 0-41.275 18.48-41.275 41.275 0 22.795 18.48 41.275 41.275 41.275 12.216 0 23.188-5.31 30.744-13.744 13.282 19.931 35.954 33.07 61.701 33.07 20.851 0 39.68-8.625 53.144-22.487 6.148 3.423 12.7 6.204 19.567 8.255-10.172-15.451-16.108-33.939-16.108-53.821 0-54.139 43.889-98.029 98.028-98.029z"/><circle cx="294.986" cy="421.014" r="17.771"/><circle cx="366.638" cy="462.863" r="17.771"/><circle cx="355.71" cy="402.055" r="6.838"/><circle cx="256.002" cy="469.702" r="6.838"/><circle cx="277.209" cy="376.498" r="6.838"/><circle cx="424.351" cy="438.791" r="6.838"/></g><g fill="#CC7400"><circle cx="384.415" cy="317.216" r="17.771"/><circle cx="424.351" cy="356.953" r="6.838"/><circle cx="424.351" cy="324.055" r="6.838"/></g><g fill="#AA6100"><circle cx="112.53" cy="310.942" r="17.771"/><circle cx="83.02" cy="350.115" r="6.838"/></g></svg>