<svg xmlns="http://www.w3.org/2000/svg" viewBox="0 0 60 60" enable-background="new 0 0 60 60"><path fill="#B0D3F0" d="M2 6.5h56v42h-56z"/><path fill="#556080" d="M0 3.5h60v4h-60zM0 7.5h2v41h-2zM58 7.5h2v41h-2z"/><path fill="#444E66" d="M4 .5h52v3h-52z"/><g fill="#D25627"><path d="M1 49.5h18v9h-18zM20 59.5h-20v-11h20v11zm-18-2h16v-7h-16v7z"/></g><g fill="#D25627"><path d="M41 49.5h18v9h-18zM60 59.5h-20v-11h20v11zm-18-2h16v-7h-16v7z"/></g><path d="M7 54.5h-1c-.553 0-1-.447-1-1s.447-1 1-1h1c.553 0 1 .447 1 1s-.447 1-1 1zM3 54.5h-1c-.553 0-1-.447-1-1s.447-1 1-1h1c.553 0 1 .447 1 1s-.447 1-1 1zM10 57.5h-1c-.553 0-1-.447-1-1s.447-1 1-1h1c.553 0 1 .447 1 1s-.447 1-1 1zM2 57.5h-1c-.553 0-1-.447-1-1s.447-1 1-1h1c.553 0 1 .447 1 1s-.447 1-1 1zM6 57.5h-1c-.553 0-1-.447-1-1s.447-1 1-1h1c.553 0 1 .447 1 1s-.447 1-1 1zM15 54.5h-1c-.553 0-1-.447-1-1s.447-1 1-1h1c.553 0 1 .447 1 1s-.447 1-1 1zM19 54.5h-1c-.553 0-1-.447-1-1s.447-1 1-1h1c.553 0 1 .447 1 1s-.447 1-1 1zM11 54.5h-1c-.553 0-1-.447-1-1s.447-1 1-1h1c.553 0 1 .447 1 1s-.447 1-1 1zM18 57.5h-1c-.553 0-1-.447-1-1s.447-1 1-1h1c.553 0 1 .447 1 1s-.447 1-1 1zM14 57.5h-1c-.553 0-1-.447-1-1s.447-1 1-1h1c.553 0 1 .447 1 1s-.447 1-1 1zM9 51.5h-1c-.553 0-1-.447-1-1s.447-1 1-1h1c.553 0 1 .447 1 1s-.447 1-1 1zM5 51.5h-1c-.553 0-1-.447-1-1s.447-1 1-1h1c.553 0 1 .447 1 1s-.447 1-1 1zM17 51.5h-1c-.553 0-1-.447-1-1s.447-1 1-1h1c.553 0 1 .447 1 1s-.447 1-1 1zM13 51.5h-1c-.553 0-1-.447-1-1s.447-1 1-1h1c.553 0 1 .447 1 1s-.447 1-1 1zM47 54.5h-1c-.553 0-1-.447-1-1s.447-1 1-1h1c.553 0 1 .447 1 1s-.447 1-1 1zM43 54.5h-1c-.553 0-1-.447-1-1s.447-1 1-1h1c.553 0 1 .447 1 1s-.447 1-1 1zM50 57.5h-1c-.553 0-1-.447-1-1s.447-1 1-1h1c.553 0 1 .447 1 1s-.447 1-1 1zM42 57.5h-1c-.553 0-1-.447-1-1s.447-1 1-1h1c.553 0 1 .447 1 1s-.447 1-1 1zM46 57.5h-1c-.553 0-1-.447-1-1s.447-1 1-1h1c.553 0 1 .447 1 1s-.447 1-1 1zM55 54.5h-1c-.553 0-1-.447-1-1s.447-1 1-1h1c.553 0 1 .447 1 1s-.447 1-1 1zM59 54.5h-1c-.553 0-1-.447-1-1s.447-1 1-1h1c.553 0 1 .447 1 1s-.447 1-1 1zM51 54.5h-1c-.553 0-1-.447-1-1s.447-1 1-1h1c.553 0 1 .447 1 1s-.447 1-1 1zM58 57.5h-1c-.553 0-1-.447-1-1s.447-1 1-1h1c.553 0 1 .447 1 1s-.447 1-1 1zM54 57.5h-1c-.553 0-1-.447-1-1s.447-1 1-1h1c.553 0 1 .447 1 1s-.447 1-1 1zM49 51.5h-1c-.553 0-1-.447-1-1s.447-1 1-1h1c.553 0 1 .447 1 1s-.447 1-1 1zM45 51.5h-1c-.553 0-1-.447-1-1s.447-1 1-1h1c.553 0 1 .447 1 1s-.447 1-1 1zM57 51.5h-1c-.553 0-1-.447-1-1s.447-1 1-1h1c.553 0 1 .447 1 1s-.447 1-1 1zM53 51.5h-1c-.553 0-1-.447-1-1s.447-1 1-1h1c.553 0 1 .447 1 1s-.447 1-1 1z" fill="#802D40"/><g fill="#fff"><path d="M5 26.5c.256 0 .512-.098.707-.293l4-4c.391-.391.391-1.023 0-1.414s-1.023-.391-1.414 0l-4 4c-.391.391-.391 1.023 0 1.414.195.195.451.293.707.293zM5 31.5c.256 0 .512-.098.707-.293l2-2c.391-.391.391-1.023 0-1.414s-1.023-.391-1.414 0l-2 2c-.391.391-.391 1.023 0 1.414.195.195.451.293.707.293zM8.29 25.79c-.181.189-.29.45-.29.71 0 .27.109.52.29.71.189.18.45.29.71.29.27 0 .52-.11.71-.29.18-.19.29-.44.29-.71 0-.26-.11-.521-.29-.71-.37-.37-1.04-.37-1.42 0zM10.293 25.207c.195.195.451.293.707.293s.512-.098.707-.293l3-3c.391-.391.391-1.023 0-1.414s-1.023-.391-1.414 0l-3 3c-.391.391-.391 1.023 0 1.414zM13.293 25.793l-9 9c-.391.391-.391 1.023 0 1.414.195.195.451.293.707.293s.512-.098.707-.293l9-9c.391-.391.391-1.023 0-1.414s-1.023-.391-1.414 0zM15.29 23.79c-.181.189-.29.439-.29.71 0 .27.109.52.29.71.189.18.439.29.71.29.27 0 .52-.11.71-.29.18-.19.29-.44.29-.71 0-.271-.11-.521-.29-.71-.37-.37-1.061-.37-1.42 0zM44 26.5c.256 0 .512-.098.707-.293l4-4c.391-.391.391-1.023 0-1.414s-1.023-.391-1.414 0l-4 4c-.391.391-.391 1.023 0 1.414.195.195.451.293.707.293zM44 31.5c.256 0 .512-.098.707-.293l2-2c.391-.391.391-1.023 0-1.414s-1.023-.391-1.414 0l-2 2c-.391.391-.391 1.023 0 1.414.195.195.451.293.707.293zM47.29 25.79c-.181.189-.29.45-.29.71s.109.52.29.71c.189.18.439.29.71.29.26 0 .52-.11.71-.29.18-.19.29-.45.29-.71s-.11-.521-.29-.71c-.38-.37-1.05-.37-1.42 0zM49.293 25.207c.195.195.451.293.707.293s.512-.098.707-.293l3-3c.391-.391.391-1.023 0-1.414s-1.023-.391-1.414 0l-3 3c-.391.391-.391 1.023 0 1.414zM52.293 25.793l-9 9c-.391.391-.391 1.023 0 1.414.195.195.451.293.707.293s.512-.098.707-.293l9-9c.391-.391.391-1.023 0-1.414s-1.023-.391-1.414 0zM55.71 23.79c-.37-.37-1.05-.37-1.42 0-.181.189-.29.439-.29.71 0 .27.109.52.29.71.189.18.45.29.71.29s.52-.11.71-.29c.18-.19.29-.45.29-.71s-.11-.521-.29-.71z"/></g><path fill="#444E66" d="M19 9.5v50h22v-50z"/><path fill="#B0D3F0" d="M23 39.5h14v16h-14zM23 17.5v17h14v-17"/><path d="M5.5 17.5c-1.933 0-3.5-1.567-3.5-3.5v-6.5h7v6.5c0 1.933-1.567 3.5-3.5 3.5z" fill="#50508A"/><path d="M12.5 17.5c-1.933 0-3.5-1.567-3.5-3.5v-6.5h7v6.5c0 1.933-1.567 3.5-3.5 3.5z" fill="#8697CB"/><path d="M19.5 17.5c-1.933 0-3.5-1.567-3.5-3.5v-6.5h7v6.5c0 1.933-1.567 3.5-3.5 3.5z" fill="#50508A"/><path d="M26.5 17.5c-1.933 0-3.5-1.567-3.5-3.5v-6.5h7v6.5c0 1.933-1.567 3.5-3.5 3.5z" fill="#8697CB"/><path d="M33.5 17.5c-1.933 0-3.5-1.567-3.5-3.5v-6.5h7v6.5c0 1.933-1.567 3.5-3.5 3.5z" fill="#50508A"/><path d="M40.5 17.5c-1.933 0-3.5-1.567-3.5-3.5v-6.5h7v6.5c0 1.933-1.567 3.5-3.5 3.5z" fill="#8697CB"/><path d="M47.5 17.5c-1.933 0-3.5-1.567-3.5-3.5v-6.5h7v6.5c0 1.933-1.567 3.5-3.5 3.5z" fill="#50508A"/><path d="M54.5 17.5c-1.933 0-3.5-1.567-3.5-3.5v-6.5h7v6.5c0 1.933-1.567 3.5-3.5 3.5z" fill="#8697CB"/></svg>