<svg xmlns="http://www.w3.org/2000/svg" viewBox="0 0 58 58" enable-background="new 0 0 58 58"><path fill="#F0785A" d="M2.5 11v47h54v-47z"/><path fill="#B35A5B" d="M4.5 29h28v23h-28z"/><path fill="#B0D3F0" d="M6.5 31h24v19h-24z"/><path d="M15.5 11h-13.622c-.189 0-.326-.181-.274-.363l4.062-8.824c.508-1.105 1.613-1.813 2.83-1.813h9.004l-2 11zM43.5 11h-14v-11h12z" fill="#ED7161"/><path d="M22.5 25c-3.866 0-7-3.134-7-7v-7h14v7c0 3.866-3.134 7-7 7zM50.5 25c-3.866 0-7-3.134-7-7v-7h13.893c.059 0 .107.048.107.107v6.893c0 3.866-3.134 7-7 7z" fill="#F0C419"/><path fill="#F3D55B" d="M29.5 11h-14l2-11h12zM57.145 11h-13.645l-2-11h9.004c1.217 0 2.322.708 2.831 1.814l4.068 8.845c.048.171-.08.341-.258.341z"/><path d="M8.5 25c-3.866 0-7-3.134-7-7v-6.718c0-.156.126-.282.282-.282h13.718v7c0 3.866-3.134 7-7 7zM36.5 25c-3.866 0-7-3.134-7-7v-7h14v7c0 3.866-3.134 7-7 7z" fill="#D36259"/><path fill="#B35A5B" d="M36.5 29h16v29h-16z"/><path fill="#B0D3F0" d="M38.5 31h12v25h-12z"/><path d="M48.5 47c-.553 0-1-.447-1-1v-3c0-.553.447-1 1-1s1 .447 1 1v3c0 .553-.447 1-1 1z" fill="#fff"/><g fill="#fff"><path d="M17.5 38c.256 0 .512-.098.707-.293l4-4c.391-.391.391-1.023 0-1.414s-1.023-.391-1.414 0l-4 4c-.391.391-.391 1.023 0 1.414.195.195.451.293.707.293zM17.5 43c.256 0 .512-.098.707-.293l2-2c.391-.391.391-1.023 0-1.414s-1.023-.391-1.414 0l-2 2c-.391.391-.391 1.023 0 1.414.195.195.451.293.707.293zM20.79 37.29c-.181.189-.29.45-.29.71s.109.52.29.7c.189.189.439.3.71.3.26 0 .52-.11.71-.29.18-.19.29-.45.29-.71s-.11-.521-.29-.71c-.37-.37-1.05-.37-1.42 0zM22.793 36.707c.195.195.451.293.707.293s.512-.098.707-.293l3-3c.391-.391.391-1.023 0-1.414s-1.023-.391-1.414 0l-3 3c-.391.391-.391 1.023 0 1.414zM25.793 37.293l-9 9c-.391.391-.391 1.023 0 1.414.195.195.451.293.707.293s.512-.098.707-.293l9-9c.391-.391.391-1.023 0-1.414s-1.023-.391-1.414 0zM29.21 35.29c-.37-.37-1.05-.37-1.42 0-.181.189-.29.45-.29.71s.109.52.29.71c.189.18.45.29.71.29s.52-.11.71-.29c.18-.19.29-.45.29-.71s-.11-.521-.29-.71z"/></g><path d="M7.5 58h-6l-.916-5.495c-.044-.264.16-.505.428-.505h7.488l-1 6z" fill="#CB8252"/><path fill="#7F6E5D" d="M3.5 41h2v11h-2z"/><path d="M8.688 36.68c.304-.768.521-1.625.357-2.444-.071-.355-.233-.696-.456-.965-.376-.455-.54-1.109-.411-1.711.122-.57.049-1.21-.216-1.721-.483-.931-1.444-1.452-2.399-1.588-.702-.1-1.477.007-1.997.543l-.618.534c-.702.331-1.24 1.064-1.394 1.897-.083.452-.053.926.077 1.364.194.653.033 1.359-.338 1.908-.836 1.236-1.057 3.007-.441 4.409.078.178.179.354.297.513.404.543.556 1.263.387 1.944-.039.156-.065.316-.08.475-.066.727.082 1.455.232 2.167.156.74.348 1.539.888 2.003.732.629 1.792.385 2.63-.047 1.184-.611 2.28-1.617 2.698-2.997.244-.805.186-1.739-.141-2.495-.33-.764-.33-1.671.148-2.33.319-.439.574-.945.777-1.459z" fill="#24AE5F"/></svg>