<svg xmlns="http://www.w3.org/2000/svg" viewBox="0 0 511.99 511.99" enable-background="new 0 0 511.99 511.99"><path d="M213.332 320.007c0-41.248 19.101-74.678 42.663-74.678s42.656 33.43 42.656 74.678c0 41.234-19.094 74.655-42.656 74.655s-42.663-33.421-42.663-74.655z" fill="#ED5564"/><path d="M107.108 305.133c5.773-40.835-8.461-76.616-31.796-79.912-23.328-3.297-46.921 27.124-52.694 67.975-5.766 40.827 8.469 76.592 31.796 79.889 23.335 3.296 46.929-27.125 52.694-67.952z" fill="#FFCE54"/><path d="M404.883 305.133c-5.766-40.835 8.453-76.616 31.796-79.912 23.328-3.297 46.922 27.124 52.687 67.975 5.781 40.827-8.468 76.592-31.78 79.889-23.345 3.296-46.938-27.125-52.703-67.952z" fill="#A0D468"/><g fill="#CCD1D9"><path d="M266.659 202.658h-21.327c-11.781 0-21.335 9.562-21.335 21.344v42.655c0 11.789 63.999 11.789 63.999 0v-42.655c-.001-11.781-9.563-21.344-21.337-21.344zM91.843 184.472l-21.117-2.984c-1.016-.141-2.023-.219-3.016-.219-10.461 0-19.585 7.703-21.093 18.358l-5.969 42.233c-1.656 11.672 61.858 19.609 63.366 8.969l5.969-42.249c1.649-11.672-6.468-22.468-18.14-24.108zM471.335 241.86l-5.969-42.233c-1.5-10.656-10.625-18.358-21.094-18.358-.984 0-2 .078-3 .219l-21.124 2.984c-11.672 1.64-19.781 12.437-18.141 24.108l5.969 42.249c1.516 10.641 65.015 2.703 63.359-8.969z"/></g><g fill="#AAB2BC"><path d="M287.995 234.658c-5.891 0-10.656 4.781-10.656 10.671s4.766 10.672 10.656 10.672v-21.343zM234.66 245.329c0-5.891-4.773-10.671-10.664-10.671v21.343c5.891 0 10.664-4.781 10.664-10.672zM45.75 208.986l-.453-.047-2.977 21.078.438.094c5.836.828 11.234-3.234 12.054-9.078.829-5.828-3.234-11.219-9.062-12.047zM105.436 240.735l2.984-21.093c-5.766-.719-11.062 3.312-11.875 9.078-.819 5.781 3.157 11.109 8.891 12.015zM465.96 209.611c-5.828.828-9.875 6.219-9.062 12.047.828 5.844 6.219 9.906 12.062 9.078.266-.047.531-.094.781-.156l-2.969-21.046-.812.077zM415.445 227.892c-.828-5.812-6.172-9.859-11.984-9.078l2.969 21.108c5.812-.843 9.843-6.218 9.015-12.03z"/></g><g fill="#434A54"><path d="M245.335 153.296h21.327v49.36h-21.327zM70.726 181.487l21.117 2.985 4.594-32.484-21.125-2.985zM441.273 181.487l-21.126 2.985-4.59-32.486 21.126-2.985z"/></g><path d="M255.995 170.659c-43.03 0-109.294-2.797-180.628-16.172-42.882-8.046-67.061-16.03-68.069-16.374-5.586-1.859-8.609-7.891-6.75-13.484 1.867-5.594 7.906-8.609 13.492-6.75.234.078 24.164 7.953 65.78 15.734 38.382 7.172 100.107 15.718 176.176 15.718 76.311 0 138.216-8.593 176.699-15.812 41.469-7.781 65.015-15.562 65.265-15.641 5.578-1.859 11.624 1.156 13.483 6.75s-1.172 11.625-6.749 13.484c-1.016.344-25.171 8.328-68.077 16.374-39.374 7.376-102.654 16.173-180.622 16.173z" fill="#656D78"/></svg>