<svg xmlns="http://www.w3.org/2000/svg" viewBox="0 0 503.322 503.322" enable-background="new 0 0 503.322 503.322"><path d="M425.222 442.576c-4.799 0-8.678-3.879-8.678-8.678v-286.373c0-4.799 3.879-8.678 8.678-8.678 4.799 0 8.678 3.879 8.678 8.678v286.373c0 4.799-3.879 8.678-8.678 8.678z" fill="#CAD3DB"/><path d="M347.12 303.729h-4.322c-7.723 0-14.518-5.103-16.67-12.514l-30.651-105.533c-5.528-12.635-18.015-20.801-31.805-20.801h-162.867c-13.789 0-26.277 8.166-31.805 20.801l-30.65 105.533c-2.152 7.411-8.947 12.514-16.67 12.514h-4.322c-9.589 0-17.356 7.767-17.356 17.356v95.458c0 9.589 7.767 17.356 17.356 17.356h329.762c9.589 0 17.356-7.767 17.356-17.356v-95.458c0-9.589-7.766-17.356-17.356-17.356" fill="#25B99A"/><g fill="#485762"><path d="M60.748 503.322h-17.356c-9.589 0-17.356-7.767-17.356-17.356v-52.068h52.068v52.068c-.001 9.589-7.767 17.356-17.356 17.356M321.086 503.322h-17.356c-9.589 0-17.356-7.767-17.356-17.356v-52.068h52.068v52.068c0 9.589-7.766 17.356-17.356 17.356"/></g><g fill="#FFD06C"><path d="M95.459 364.475c0 14.379-11.655 26.034-26.034 26.034s-26.034-11.655-26.034-26.034 11.655-26.034 26.034-26.034 26.034 11.654 26.034 26.034M321.086 364.475c0 14.379-11.655 26.034-26.034 26.034s-26.034-11.655-26.034-26.034 11.655-26.034 26.034-26.034c14.38 0 26.034 11.654 26.034 26.034"/></g><g fill="#485762"><path d="M199.595 390.508h-34.712c-4.799 0-8.678-3.879-8.678-8.678s3.879-8.678 8.678-8.678h34.712c4.799 0 8.678 3.879 8.678 8.678s-3.879 8.678-8.678 8.678M216.951 355.797h-69.424c-4.799 0-8.678-3.879-8.678-8.678 0-4.799 3.879-8.678 8.678-8.678h69.424c4.799 0 8.678 3.879 8.678 8.678 0 4.799-3.879 8.678-8.678 8.678"/></g><path d="M266.033 286.373h-167.588c-5.814 0-9.98-5.606-8.313-11.169l20.827-69.424c1.102-3.671 4.478-6.187 8.313-6.187h125.935c3.836 0 7.211 2.517 8.313 6.187l20.827 69.424c1.666 5.563-2.499 11.169-8.314 11.169" fill="#D0E8F9"/><path fill="#485762" d="M373.151 503.322h104.135v-34.712h-104.135z"/><path fill="#95ACB9" d="M399.185 468.61h52.068v-34.712h-52.068z"/><path fill="#2080E0" d="M355.795 147.525h147.525v-147.525h-147.525z"/><g fill="#fff"><path d="M416.544 121.492c-4.799 0-8.678-3.879-8.678-8.678v-78.102c0-4.799 3.879-8.678 8.678-8.678 4.799 0 8.678 3.879 8.678 8.678v78.102c0 4.798-3.879 8.678-8.678 8.678"/><path d="M425.222 78.102h8.678c9.572 0 17.356-7.784 17.356-17.356s-7.784-17.356-17.356-17.356h-8.678v34.712zm8.678 17.356h-17.356c-4.799 0-8.678-3.879-8.678-8.678v-52.068c0-4.799 3.879-8.678 8.678-8.678h17.356c19.144 0 34.712 15.568 34.712 34.712s-15.568 34.712-34.712 34.712z"/></g></svg>