<svg xmlns="http://www.w3.org/2000/svg" viewBox="0 0 512 512" enable-background="new 0 0 512 512"><path d="M256 3.733c-33.297 0-60.386 27.089-60.386 60.386v429.147c0 8.284 6.716 15 15 15h90.771s15-6.716 15-15v-429.147c.001-33.297-27.088-60.386-60.385-60.386z" fill="#FFCC03"/><path d="M256 3.733c-33.297 0-60.386 27.089-60.386 60.386v429.147c0 8.284 6.716 15 15 15h45.386v-504.533z" fill="#FFE981"/><path d="M493.921 306.873l-30.029-23.685c-2.646-2.087-5.918-3.223-9.289-3.223h-277.271c-26.184 0-47.486 21.302-47.486 47.486v33.411c0 26.184 21.302 47.486 47.486 47.486h277.271c3.371 0 6.643-1.135 9.289-3.223l30.029-23.685c11.49-9.06 18.079-22.649 18.079-37.282 0-14.634-6.589-28.223-18.079-37.285z" fill="#5AD65B"/><path d="M256 279.966h-78.668c-26.184 0-47.486 21.302-47.486 47.486v33.411c0 26.184 21.302 47.486 47.486 47.486h78.668v-128.383z" fill="#B9F05E"/><path d="M334.668 102.827h-277.271c-3.371 0-6.643 1.135-9.289 3.223l-30.029 23.685c-11.49 9.061-18.079 22.65-18.079 37.283 0 14.633 6.589 28.223 18.079 37.285l30.029 23.685c2.646 2.087 5.918 3.223 9.289 3.223h277.271c26.184 0 47.486-21.302 47.486-47.486v-33.411c0-26.185-21.302-47.487-47.486-47.487z" fill="#CC1F2C"/><path d="M256 102.827h-198.603c-3.371 0-6.643 1.135-9.289 3.223l-30.029 23.685c-11.49 9.061-18.079 22.65-18.079 37.283 0 14.633 6.589 28.223 18.079 37.285l30.029 23.685c2.646 2.087 5.918 3.223 9.289 3.223h198.603v-128.384z" fill="#F05449"/><path d="M325.165 478.267h-138.33c-8.284 0-15 6.716-15 15s6.716 15 15 15h138.329c8.284 0 15-6.716 15-15s-6.715-15-14.999-15z" fill="#FA7437"/><path d="M256 478.267h-69.165c-8.284 0-15 6.716-15 15s6.716 15 15 15h69.165v-30z" fill="#F9B33B"/></svg>