<svg xmlns="http://www.w3.org/2000/svg" viewBox="0 0 511.985 511.985" enable-background="new 0 0 511.985 511.985"><path d="M405.331 32h-298.671c-5.89 0-10.663 4.78-10.663 10.671v458.658c0 5.891 4.773 10.656 10.663 10.656h298.671c5.875 0 10.656-4.766 10.656-10.656v-458.658c0-5.891-4.781-10.671-10.656-10.671z" fill="#ED5564"/><path d="M191.994 74.67h-42.663c-5.891 0-10.672 4.781-10.672 10.672v63.998c0 5.891 4.781 10.656 10.672 10.656h42.663c5.891 0 10.663-4.766 10.663-10.656v-63.999c0-5.89-4.772-10.671-10.663-10.671z" fill="#4FC2E9"/><path d="M191.994 74.67h-42.663c-5.891 0-10.672 4.781-10.672 10.672v21.327h63.998v-21.328c0-5.89-4.772-10.671-10.663-10.671z" fill="#E6E9ED"/><path d="M277.335 74.67h-42.678c-5.891 0-10.664 4.781-10.664 10.672v63.998c0 5.891 4.773 10.656 10.664 10.656h42.678c5.875 0 10.655-4.766 10.655-10.656v-63.999c0-5.89-4.78-10.671-10.655-10.671z" fill="#4FC2E9"/><path d="M277.335 74.67h-42.678c-5.891 0-10.664 4.781-10.664 10.672v21.327h63.997v-21.328c0-5.89-4.78-10.671-10.655-10.671z" fill="#E6E9ED"/><path d="M362.644 74.67h-42.654c-5.891 0-10.656 4.781-10.656 10.672v63.998c0 5.891 4.766 10.656 10.656 10.656h42.654c5.906 0 10.688-4.766 10.688-10.656v-63.999c0-5.89-4.781-10.671-10.688-10.671z" fill="#4FC2E9"/><path d="M362.644 74.67h-42.654c-5.891 0-10.656 4.781-10.656 10.672v21.327h63.998v-21.328c0-5.89-4.781-10.671-10.688-10.671z" fill="#E6E9ED"/><path d="M191.994 181.339h-42.663c-5.891 0-10.672 4.766-10.672 10.656v63.998c0 5.891 4.781 10.672 10.672 10.672h42.663c5.891 0 10.663-4.781 10.663-10.672v-63.998c0-5.891-4.772-10.656-10.663-10.656z" fill="#4FC2E9"/><path d="M191.994 181.339h-42.663c-5.891 0-10.672 4.766-10.672 10.656v21.343h63.998v-21.343c0-5.891-4.772-10.656-10.663-10.656z" fill="#E6E9ED"/><path d="M277.335 181.339h-42.678c-5.891 0-10.664 4.766-10.664 10.656v63.998c0 5.891 4.773 10.672 10.664 10.672h42.678c5.875 0 10.655-4.781 10.655-10.672v-63.998c0-5.891-4.78-10.656-10.655-10.656z" fill="#4FC2E9"/><path d="M277.335 181.339h-42.678c-5.891 0-10.664 4.766-10.664 10.656v21.343h63.997v-21.343c0-5.891-4.78-10.656-10.655-10.656z" fill="#E6E9ED"/><path d="M362.644 181.339h-42.654c-5.891 0-10.656 4.766-10.656 10.656v63.998c0 5.891 4.766 10.672 10.656 10.672h42.654c5.906 0 10.688-4.781 10.688-10.672v-63.998c0-5.891-4.781-10.656-10.688-10.656z" fill="#4FC2E9"/><path d="M362.644 181.339h-42.654c-5.891 0-10.656 4.766-10.656 10.656v21.343h63.998v-21.343c0-5.891-4.781-10.656-10.688-10.656z" fill="#E6E9ED"/><path d="M191.994 287.991h-42.663c-5.891 0-10.672 4.781-10.672 10.671v63.998c0 5.891 4.781 10.672 10.672 10.672h42.663c5.891 0 10.663-4.781 10.663-10.672v-63.998c0-5.89-4.772-10.671-10.663-10.671z" fill="#4FC2E9"/><path d="M191.994 287.991h-42.663c-5.891 0-10.672 4.781-10.672 10.671v21.328h63.998v-21.328c0-5.89-4.772-10.671-10.663-10.671z" fill="#E6E9ED"/><path d="M277.335 287.991h-42.678c-5.891 0-10.664 4.781-10.664 10.671v63.998c0 5.891 4.773 10.672 10.664 10.672h42.678c5.875 0 10.655-4.781 10.655-10.672v-63.998c0-5.89-4.78-10.671-10.655-10.671z" fill="#4FC2E9"/><path d="M277.335 287.991h-42.678c-5.891 0-10.664 4.781-10.664 10.671v21.328h63.997v-21.328c0-5.89-4.78-10.671-10.655-10.671z" fill="#E6E9ED"/><path d="M362.644 287.991h-42.654c-5.891 0-10.656 4.781-10.656 10.671v63.998c0 5.891 4.766 10.672 10.656 10.672h42.654c5.906 0 10.688-4.781 10.688-10.672v-63.998c0-5.89-4.781-10.671-10.688-10.671z" fill="#4FC2E9"/><path d="M362.644 287.991h-42.654c-5.891 0-10.656 4.781-10.656 10.671v21.328h63.998v-21.328c0-5.89-4.781-10.671-10.688-10.671z" fill="#E6E9ED"/><path d="M191.994 394.66h-42.663c-5.891 0-10.672 4.781-10.672 10.672v63.998c0 5.891 4.781 10.655 10.672 10.655h42.663c5.891 0 10.663-4.765 10.663-10.655v-63.998c0-5.891-4.772-10.672-10.663-10.672z" fill="#4FC2E9"/><path d="M191.994 394.66h-42.663c-5.891 0-10.672 4.781-10.672 10.672v21.327h63.998v-21.327c0-5.891-4.772-10.672-10.663-10.672z" fill="#E6E9ED"/><path d="M362.644 394.66h-42.654c-5.891 0-10.656 4.781-10.656 10.672v63.998c0 5.891 4.766 10.655 10.656 10.655h42.654c5.906 0 10.688-4.765 10.688-10.655v-63.998c0-5.891-4.781-10.672-10.688-10.672z" fill="#4FC2E9"/><path d="M362.644 394.66h-42.654c-5.891 0-10.656 4.781-10.656 10.672v21.327h63.998v-21.327c0-5.891-4.781-10.672-10.688-10.672z" fill="#E6E9ED"/><path d="M469.33 511.984c-5.906 0-10.688-4.766-10.688-10.656v-63.998c0-5.891 4.781-10.671 10.688-10.671 5.874 0 10.655 4.78 10.655 10.671v63.998c0 5.891-4.781 10.656-10.655 10.656z" fill="#A85D5D"/><path d="M469.33 469.331c-23.531 0-42.688-19.141-42.688-42.671 0-9.984 3.734-34.749 9.75-57.358 9.062-34.092 19.219-49.311 32.938-49.311 13.718 0 23.873 15.219 32.936 49.311 6 22.609 9.719 47.374 9.719 57.358-.001 23.529-19.141 42.671-42.655 42.671z" fill="#A0D468"/><path d="M42.662 511.984c-5.891 0-10.663-4.766-10.663-10.656v-63.998c0-5.891 4.772-10.671 10.663-10.671s10.672 4.78 10.672 10.671v63.998c0 5.891-4.781 10.656-10.672 10.656z" fill="#A85D5D"/><path d="M42.662 469.331c-23.522 0-42.662-19.141-42.662-42.671 0-9.984 3.718-34.749 9.726-57.358 9.062-34.092 19.219-49.311 32.937-49.311 13.719 0 23.875 15.219 32.937 49.311 6.008 22.609 9.734 47.374 9.734 57.358-.001 23.529-19.141 42.671-42.672 42.671z" fill="#A0D468"/><path d="M415.987.001h-319.99c-5.891 0-10.664 4.78-10.664 10.671v31.999c0 5.891 4.773 10.672 10.664 10.672h319.99c5.89 0 10.655-4.781 10.655-10.672v-31.999c0-5.891-4.765-10.671-10.655-10.671z" fill="#656D78"/><g fill="#434A54"><path d="M127.996 32c-5.891 0-10.664 4.78-10.664 10.671v10.672h21.327v-10.672c0-5.891-4.772-10.671-10.663-10.671zM170.658 32c-5.89 0-10.663 4.78-10.663 10.671v10.672h21.335v-10.672c0-5.891-4.781-10.671-10.672-10.671zM213.329 32c-5.891 0-10.672 4.78-10.672 10.671v10.672h21.336v-10.672c0-5.891-4.773-10.671-10.664-10.671zM255.992 32c-5.891 0-10.664 4.78-10.664 10.671v10.672h21.328v-10.672c0-5.891-4.773-10.671-10.664-10.671zM298.646 32c-5.875 0-10.656 4.78-10.656 10.671v10.672h21.344v-10.672c0-5.891-4.781-10.671-10.688-10.671zM341.333 32c-5.905 0-10.687 4.78-10.687 10.671v10.672h21.343v-10.672c0-5.891-4.781-10.671-10.656-10.671zM383.988 32c-5.891 0-10.656 4.78-10.656 10.671v10.672h21.312v-10.672c0-5.891-4.765-10.671-10.656-10.671z"/></g><path d="M277.335 394.66h-42.678c-5.891 0-10.664 4.781-10.664 10.672v106.652h63.997v-106.652c0-5.891-4.78-10.672-10.655-10.672z" fill="#F6BB42"/></svg>