<svg xmlns="http://www.w3.org/2000/svg" viewBox="0 0 129.37 49.87"><defs><style>.cls-1{fill:#abc8c0;}</style></defs><title>HA1</title><g id="Layer_2" data-name="Layer 2"><g id="Layer_1-2" data-name="Layer 1"><path class="cls-1" d="M5.65,6.24H0V0H19V6.24H13.14V20.49H34.88V6.24H29V0h19.1V6.24H42.38V43.62h5.73v6.2H29v-6.2h5.87V26.73H13.14V43.62H19v6.2H0v-6.2H5.67Zm64,26.07L65.74,43.62h6.09v6.2H52.15v-6.2h6l13.66-38H65.74V0h25.5V5.62H85.07l14,38h5.58v6.2H85.06v-6.2h6.18L87.5,32.31ZM79,5.58h-.66l-6.9,20.93H85.64Z"/><path class="cls-1" d="M123,29.69V0H108.66V6.24h6.83V43.62h-6.83v6.25h20.71V43.62H123Z"/></g></g></svg>