<svg xmlns="http://www.w3.org/2000/svg" viewBox="0 0 324.46 124.39"><defs><style>.cls-1{fill:#abc8c0;}.cls-2{fill:#004a99;}</style></defs><title>Harrow-BID</title><path class="cls-1" d="M5.65 7.05h-5.65v-6.24h19v6.24h-5.86v14.25h21.74v-14.25h-5.87v-6.24h19.1v6.24h-5.73v37.38h5.73v6.2h-19.1v-6.2h5.87v-16.89h-21.74v16.89h5.88v6.2h-19v-6.2h5.65zM69.63 33.12l-3.89 11.31h6.09v6.2h-19.68v-6.2h6l13.66-38h-6.07v-5.58h25.5v5.58h-6.17l14 38h5.58v6.2h-19.59v-6.2h6.18l-3.74-11.31zm9.4-26.73h-.66l-6.9 20.93h14.17z"/><path class="cls-2" d="M163.11 7.05h-6.87v-6.24h20.2c7 0 9 .29 12.19 1.84 4.19 2.05 6.54 6 6.54 11.24 0 6.39-3.6 10.72-10.28 12.41l8.82 18.14h6.09v6.19h-10.76l-11.38-23.35h-7v17.15h6.39v6.2h-20.81v-6.2h6.83zm13.37 14.1c4.77 0 5.36-.15 7.27-1 2.28-1 3.67-3.38 3.67-6.39 0-5.07-2.65-6.76-10.43-6.76h-6.39v14.1zM225.32 0c15.12 0 25.92 10.72 25.92 25.63s-10.87 25.85-26.07 25.85c-14.69 0-25.49-10.94-25.49-25.85s10.65-25.63 25.64-25.63zm.07 44.87c9.91 0 17.63-8.45 17.63-19.24s-7.71-19-17.77-19-17.33 7.93-17.33 19 7.32 19.24 17.47 19.24zM257.04 7.05h-6v-6.24h19v6.24h-5.95l9.4 32.61h.15l9-32.61h-6v-6.24h22.92v6.24h-5.88l9 32.61h.15l9.25-32.61h-6v-6.24h18.29v6.24h-5.87l-12.41 44.14h-7.12l-11.17-39.44h-.15l-11.09 39.44h-7zM146.11 44.43l-8.81-18.14c6.68-1.69 10.28-6 10.28-12.41 0-5.21-2.35-9.18-6.54-11.24-3.23-1.54-5.14-1.84-12.19-1.84h-1.8v6.24h2.31c7.79 0 10.43 1.69 10.43 6.76 0 3-1.39 5.43-3.67 6.39-1.91.81-2.5 1-7.27 1h-1.8v6.17h3l11.36 23.27h10.83v-6.2z"/><path class="cls-1" d="M122.98 30.5v-29.69h-14.32v6.24h6.83v37.38h-6.83v6.25h20.71v-6.25h-6.39v-13.93z"/><path class="cls-2" d="M11.96 65.09v26.42h-3.28v-26.42h-8.65v-3h20.58v3zM42.06 91.97c-7.31 0-12.14-6.26-12.14-15.12s4.92-15.22 12.22-15.22 12.18 6.26 12.18 15.12-4.95 15.22-12.26 15.22zm0-27.35c-5.08 0-8.82 4.75-8.82 12.14s3.86 12.22 9 12.22 8.86-4.75 8.86-12.14-3.96-12.21-9.08-12.21zM89.24 91.51h-3.7l-4.62-18.82c-.46-1.93-1.09-4.83-1.43-6.64-.34 1.81-1 4.62-1.43 6.64l-4.62 18.82h-3.61l-5.88-29.41h3.29l3.44 18.9c.34 1.93.84 5.13 1.09 6.55.25-1.43.92-4.58 1.39-6.47l4.66-19h3.53l4.66 19c.46 1.89 1.13 5 1.39 6.47.25-1.43.76-4.62 1.09-6.55l3.44-18.9h3.19zM123.82 91.51l-12.85-20.12c-.63-1-1.72-2.94-2.1-3.7v23.82h-3.15v-29.41h3.19l12.72 20.53c.63 1 1.72 2.94 2.1 3.7v-24.2h3.15v29.41z"/><path class="cls-2" d="M357.86 284.34c-7.18 0-11.89-6.51-11.89-15.12s4.92-15.22 12.03-15.22a10.78 10.78 0 0 1 9.37 4.71l-2.6 2c-1.89-2.56-3.65-3.7-6.85-3.7-5 0-8.65 5-8.65 12.14s3.74 12.22 8.7 12.22c3.19 0 5.38-1.43 7.27-3.86l2.27 2a11.56 11.56 0 0 1-9.65 4.83z" transform="translate(-195.76 -192.37)"/><path class="cls-2" d="M182.47 91.51v-29.41h17.77v3h-14.49v9.24h8.4v3h-8.4v11.19h15.12v3zM229.85 91.51l-12.85-20.12c-.63-1-1.72-2.94-2.1-3.7v23.82h-3.16v-29.41h3.19l12.73 20.53c.63 1 1.72 2.94 2.1 3.7v-24.2h3.15v29.41zM255.38 65.09v26.42h-3.28v-26.42h-8.65v-3h20.59v3zM288.44 78.74l6.47 12.77h-3.78l-6.3-12.52h-7v12.52h-3.28v-29.41h11.69c5.17 0 9.16 2.65 9.16 8.32-.03 4.58-2.76 7.44-6.96 8.32zm-2.35-13.65h-8.23v11h7.81c4.37 0 6.43-1.81 6.43-5.5s-2.11-5.5-6.01-5.5zM306 91.51v-29.41h17.77v3h-14.53v9.24h8.4v3h-8.4v11.19h15.12v3z"/><path class="cls-2" d="M201.86 312.13h-6v-16.8h6.14c2.66 0 4.56 1.32 4.56 4.2a3.4 3.4 0 0 1-2.42 3.43 4 4 0 0 1 3.22 4.2c-.02 3.31-1.97 4.97-5.5 4.97zm0-15.1h-4.2v5.23h4.06c2.09 0 2.9-1.2 2.9-2.66s-.84-2.6-2.71-2.6zm0 6.91h-4.18v6.48h4.32c2.52 0 3.48-1.25 3.48-3.17-.02-2.1-1.41-3.3-3.59-3.3zM218.28 312.13v-1.54a4.07 4.07 0 0 1-3.48 1.8c-2.66 0-4.42-1.56-4.42-5.18v-7.68h1.8v7.37c0 2.71 1 3.94 3 3.94 1.75 0 3.12-1.18 3.12-3.94v-7.37h1.8v12.6zM227.54 312.39a7.07 7.07 0 0 1-4.44-1.61l1.06-1.32a5.18 5.18 0 0 0 3.43 1.39c1.73 0 2.54-.72 2.54-1.94 0-1-.74-1.61-3-2.57-2.52-1.08-3.58-1.85-3.58-3.86s1.66-3.22 3.94-3.22a6.2 6.2 0 0 1 4 1.34l-1 1.32a4.56 4.56 0 0 0-3.14-1.13c-1.32 0-2.09.65-2.09 1.56s.65 1.49 2.78 2.45c2.38 1.08 3.77 1.78 3.77 4 .05 2.51-2.09 3.59-4.27 3.59zM236.32 297.27a1.28 1.28 0 1 1 1.25-1.27 1.28 1.28 0 0 1-1.25 1.27zm-.94 14.86v-12.6h1.8v12.6zM249.19 312.13v-7.37c0-2.71-1-3.94-3-3.94-1.75 0-3.12 1.18-3.12 3.94v7.37h-1.8v-12.6h1.8v1.54a4.07 4.07 0 0 1 3.48-1.8c2.66 0 4.42 1.56 4.42 5.18v7.68zM264.43 306.44h-8.43c.17 2.69 1.44 4.39 3.5 4.39a5.62 5.62 0 0 0 3.48-1.2l.84 1.3a7.46 7.46 0 0 1-4.51 1.46c-2.3 0-5.11-1.68-5.11-6.62 0-4 2.21-6.5 5.21-6.5 3.29 0 5.06 2.59 5.06 6.19a5.52 5.52 0 0 1-.04.98zm-5-5.62c-1.87 0-3.17 1.34-3.38 4.15h6.79c-.16-2.44-1.22-4.14-3.43-4.14zM271.1 312.39a7.07 7.07 0 0 1-4.44-1.61l1.06-1.32a5.18 5.18 0 0 0 3.43 1.39c1.73 0 2.54-.72 2.54-1.94 0-1-.74-1.61-3-2.57-2.52-1.08-3.58-1.85-3.58-3.86s1.66-3.22 3.94-3.22a6.2 6.2 0 0 1 4 1.34l-1 1.32a4.56 4.56 0 0 0-3.05-1.12c-1.32 0-2.09.65-2.09 1.56s.65 1.49 2.78 2.45c2.38 1.08 3.77 1.78 3.77 4-.04 2.5-2.18 3.58-4.36 3.58zM282.07 312.39a7.07 7.07 0 0 1-4.44-1.61l1.06-1.32a5.18 5.18 0 0 0 3.43 1.39c1.73 0 2.54-.72 2.54-1.94 0-1-.74-1.61-3-2.57-2.52-1.08-3.58-1.85-3.58-3.86s1.66-3.22 3.94-3.22a6.2 6.2 0 0 1 4 1.34l-1 1.32a4.56 4.56 0 0 0-3.14-1.13c-1.32 0-2.09.65-2.09 1.56s.65 1.49 2.78 2.45c2.38 1.08 3.77 1.78 3.77 4 .05 2.51-2.09 3.59-4.27 3.59z" transform="translate(-195.76 -192.37)"/><path class="cls-2" d="M100.61 119.76v-16.8h1.87v16.8z"/><path class="cls-2" d="M317.2 312.13v-7.37c0-2.88-.89-3.94-2.71-3.94s-2.81 1.15-2.81 3.94v7.37h-1.8v-7.37c0-2.88-1-3.94-2.71-3.94s-2.81 1.15-2.81 3.94v7.37h-1.8v-12.6h1.8v1.54a3.56 3.56 0 0 1 3.19-1.8 3.67 3.67 0 0 1 3.46 2.16 4.1 4.1 0 0 1 3.82-2.16c2.57 0 4.18 1.51 4.18 5.18v7.68zM328.27 312.39a4.48 4.48 0 0 1-3.55-1.68v5l-1.8 1v-17.18h1.8v1.54a5 5 0 0 1 3.79-1.8c2.52 0 4.51 1.92 4.51 6.36s-2.11 6.76-4.75 6.76zm-.22-11.57a4.28 4.28 0 0 0-3.34 1.82v6.29a4.12 4.12 0 0 0 3.41 1.9c2.09 0 3.12-1.8 3.12-5.18 0-3.17-1.24-4.82-3.19-4.82zM342.76 301.4a3.56 3.56 0 0 0-1.9-.48c-1.75 0-2.74 1.42-2.74 3.82v7.39h-1.8v-12.6h1.8v1.56a3.69 3.69 0 0 1 3.12-1.82 4.82 4.82 0 0 1 2 .31z" transform="translate(-195.76 -192.37)"/><path class="cls-2" d="M154.49 120.02c-3.07 0-5.42-2.28-5.42-6.55s2.45-6.58 5.52-6.58 5.42 2.21 5.42 6.48-2.44 6.65-5.52 6.65zm0-11.57c-2.18 0-3.65 1.66-3.65 5s1.46 5 3.65 5 3.67-1.73 3.67-5-1.43-4.99-3.62-4.99zM167.96 119.76h-1.58l-4.51-12.6h1.92l3.22 9.91.19.6.19-.6 3.22-9.91h1.87z"/><path class="cls-2" d="M380.27 306.44h-8.4c.17 2.69 1.44 4.39 3.51 4.39a5.61 5.61 0 0 0 3.48-1.2l.84 1.3a7.47 7.47 0 0 1-4.51 1.46c-2.3 0-5.11-1.68-5.11-6.62 0-4 2.21-6.5 5.21-6.5 3.29 0 5.06 2.59 5.06 6.19a5.42 5.42 0 0 1-.08.98zm-5-5.62c-1.87 0-3.17 1.34-3.38 4.15h6.79c-.16-2.44-1.21-4.14-3.42-4.14zM398.35 312.13v-7.37c0-2.88-.89-3.94-2.71-3.94s-2.81 1.15-2.81 3.94v7.37h-1.83v-7.37c0-2.88-1-3.94-2.71-3.94s-2.81 1.15-2.81 3.94v7.37h-1.8v-12.6h1.8v1.54a3.56 3.56 0 0 1 3.19-1.8 3.67 3.67 0 0 1 3.46 2.16 4.1 4.1 0 0 1 3.82-2.16c2.57 0 4.18 1.51 4.18 5.18v7.68zM413.59 306.44h-8.4c.17 2.69 1.44 4.39 3.5 4.39a5.61 5.61 0 0 0 3.48-1.2l.84 1.3a7.46 7.46 0 0 1-4.51 1.46c-2.3 0-5.11-1.68-5.11-6.62 0-4 2.21-6.5 5.21-6.5 3.29 0 5.06 2.59 5.06 6.19a5.42 5.42 0 0 1-.07.98zm-5-5.62c-1.87 0-3.17 1.34-3.38 4.15h6.79c-.17-2.44-1.22-4.14-3.43-4.14zM424.91 312.13v-7.37c0-2.71-1-3.94-3-3.94-1.75 0-3.12 1.18-3.12 3.94v7.37h-1.79v-12.6h1.8v1.54a4.08 4.08 0 0 1 3.48-1.8c2.66 0 4.42 1.56 4.42 5.18v7.68zM432.81 301v8.21c0 1.13.31 1.51 1.27 1.51a4.19 4.19 0 0 0 1.78-.36l-.12 1.56a5.68 5.68 0 0 1-2.33.43c-1.56 0-2.4-.77-2.4-2.86v-8.49h-1.56v-1.51h1.55v-3.89l1.8-1v4.9h3.12v1.5z" transform="translate(-195.76 -192.37)"/><path class="cls-2" d="M254.24 119.76h-4.11v-16.8h4.44c4.42 0 7.66 2.52 7.66 8.28.01 6.1-3.51 8.52-7.99 8.52zm.19-15.1h-2.42v13.39h2.47c3.62 0 5.88-1.92 5.88-6.74 0-4.29-2.07-6.68-5.93-6.68z"/><path class="cls-2" d="M462.52 297.27a1.28 1.28 0 1 1 1.25-1.27 1.28 1.28 0 0 1-1.25 1.27zm-.94 14.86v-12.6h1.8v12.6zM471 312.39a7.06 7.06 0 0 1-4.44-1.61l1.05-1.32a5.18 5.18 0 0 0 3.43 1.39c1.73 0 2.54-.72 2.54-1.94 0-1-.74-1.61-3-2.57-2.52-1.08-3.58-1.85-3.58-3.86s1.66-3.22 3.94-3.22a6.19 6.19 0 0 1 4 1.34l-1 1.32a4.56 4.56 0 0 0-3.14-1.13c-1.32 0-2.09.65-2.09 1.56s.65 1.49 2.79 2.45c2.37 1.08 3.77 1.78 3.77 4 .02 2.51-2.12 3.59-4.27 3.59zM480.76 301v8.21c0 1.13.31 1.51 1.27 1.51a4.19 4.19 0 0 0 1.78-.36l-.12 1.56a5.69 5.69 0 0 1-2.33.43c-1.56 0-2.4-.77-2.4-2.86v-8.49h-1.56v-1.51h1.6v-3.89l1.8-1v4.9h3.12v1.5zM493.82 301.4a3.56 3.56 0 0 0-1.9-.48c-1.75 0-2.74 1.42-2.74 3.82v7.39h-1.8v-12.6h1.8v1.56a3.7 3.7 0 0 1 3.12-1.82 4.83 4.83 0 0 1 2 .31zM498.21 297.27a1.28 1.28 0 1 1 1.25-1.27 1.27 1.27 0 0 1-1.25 1.27zm-.94 14.86v-12.6h1.8v12.6zM510.57 302.1a4.19 4.19 0 0 0-3-1.27c-2 0-3.48 1.78-3.48 4.92s1.32 5.09 3.55 5.09a3.9 3.9 0 0 0 2.9-1.34l1.08 1.15a5.32 5.32 0 0 1-4.05 1.75c-2.76 0-5.3-2.11-5.3-6.5 0-4.66 2.78-6.62 5.42-6.62a5.86 5.86 0 0 1 4 1.49zM517.09 301v8.21c0 1.13.31 1.51 1.27 1.51a4.19 4.19 0 0 0 1.78-.36l-.14 1.64a5.67 5.67 0 0 1-2.33.43c-1.56 0-2.4-.77-2.4-2.86v-8.57h-1.56v-1.51h1.56v-3.89l1.8-1v4.9h3.12v1.5z" transform="translate(-195.76 -192.37)"/></svg>