<svg id="Layer_1" data-name="Layer 1" xmlns="http://www.w3.org/2000/svg" viewBox="0 0 324.46 124.39"><defs><style>.cls-1{fill:#abc8c0;}.cls-2{fill:#004a99;}</style></defs><title>Harrow-BID</title><path class="cls-1" d="M201.41,199.42h-5.65v-6.24h19v6.24H208.9v14.25h21.74V199.42h-5.87v-6.24h19.1v6.24h-5.73V236.8h5.73V243h-19.1V236.8h5.87V219.91H208.9V236.8h5.88V243h-19V236.8h5.65Z" transform="translate(-195.76 -192.37)"/><path class="cls-1" d="M265.39,225.49,261.5,236.8h6.09V243H247.91V236.8h6l13.66-38H261.5v-5.58H287v5.58h-6.17l14,38h5.58V243H280.82V236.8H287l-3.74-11.31Zm9.4-26.73h-.66l-6.9,20.93H281.4Z" transform="translate(-195.76 -192.37)"/><path class="cls-2" d="M358.87,199.42H352v-6.24h20.2c7,0,9,.29,12.19,1.84,4.19,2.05,6.54,6,6.54,11.24,0,6.39-3.6,10.72-10.28,12.41l8.82,18.14h6.09V243H384.8l-11.38-23.35h-7V236.8h6.39V243H352V236.8h6.83Zm13.37,14.1c4.77,0,5.36-.15,7.27-1,2.28-1,3.67-3.38,3.67-6.39,0-5.07-2.65-6.76-10.43-6.76h-6.39v14.1Z" transform="translate(-195.76 -192.37)"/><path class="cls-2" d="M421.08,192.37C436.2,192.37,447,203.09,447,218s-10.87,25.85-26.07,25.85c-14.69,0-25.49-10.94-25.49-25.85S406.09,192.37,421.08,192.37Zm.07,44.87c9.91,0,17.63-8.45,17.63-19.24s-7.71-19-17.77-19-17.33,7.93-17.33,19S411,237.24,421.15,237.24Z" transform="translate(-195.76 -192.37)"/><path class="cls-2" d="M452.8,199.42h-6v-6.24h19v6.24h-5.95l9.4,32.61h.15l9-32.61h-6v-6.24h22.92v6.24h-5.88l9,32.61h.15l9.25-32.61h-6v-6.24h18.29v6.24h-5.87l-12.41,44.14h-7.12l-11.17-39.44h-.15l-11.09,39.44h-7Z" transform="translate(-195.76 -192.37)"/><path class="cls-2" d="M341.87,236.8l-8.81-18.14c6.68-1.69,10.28-6,10.28-12.41,0-5.21-2.35-9.18-6.54-11.24-3.23-1.54-5.14-1.84-12.19-1.84h-1.8v6.24h2.31c7.79,0,10.43,1.69,10.43,6.76,0,3-1.39,5.43-3.67,6.39-1.91.81-2.5,1-7.27,1h-1.8v6.17h3L337.17,243H348V236.8Z" transform="translate(-195.76 -192.37)"/><polygon class="cls-1" points="122.98 30.5 122.98 30.5 122.98 0.81 108.66 0.81 108.66 7.05 115.49 7.05 115.49 44.43 108.66 44.43 108.66 50.68 129.37 50.68 129.37 44.43 122.98 44.43 122.98 30.5"/><path class="cls-2" d="M207.72,257.46v26.42h-3.28V257.46h-8.65v-3h20.58v3Z" transform="translate(-195.76 -192.37)"/><path class="cls-2" d="M237.82,284.34c-7.31,0-12.14-6.26-12.14-15.12S230.6,254,237.9,254s12.18,6.26,12.18,15.12S245.13,284.34,237.82,284.34Zm0-27.35c-5.08,0-8.82,4.75-8.82,12.14s3.86,12.22,9,12.22,8.86-4.75,8.86-12.14S242.9,257,237.78,257Z" transform="translate(-195.76 -192.37)"/><path class="cls-2" d="M285,283.88h-3.7l-4.62-18.82c-.46-1.93-1.09-4.83-1.43-6.64-.34,1.81-1,4.62-1.43,6.64l-4.62,18.82h-3.61l-5.88-29.41H263l3.44,18.9c.34,1.93.84,5.13,1.09,6.55.25-1.43.92-4.58,1.39-6.47l4.66-19h3.53l4.66,19c.46,1.89,1.13,5,1.39,6.47.25-1.43.76-4.62,1.09-6.55l3.44-18.9h3.19Z" transform="translate(-195.76 -192.37)"/><path class="cls-2" d="M319.58,283.88l-12.85-20.12c-.63-1-1.72-2.94-2.1-3.7v23.82h-3.15V254.47h3.19L317.39,275c.63,1,1.72,2.94,2.1,3.7v-24.2h3.15v29.41Z" transform="translate(-195.76 -192.37)"/><path class="cls-2" d="M357.86,284.34c-7.18,0-11.89-6.51-11.89-15.12S350.89,254,358,254a10.78,10.78,0,0,1,9.37,4.71l-2.6,2c-1.89-2.56-3.65-3.7-6.85-3.7-5,0-8.65,5-8.65,12.14s3.74,12.22,8.7,12.22c3.19,0,5.38-1.43,7.27-3.86l2.27,2A11.56,11.56,0,0,1,357.86,284.34Z" transform="translate(-195.76 -192.37)"/><path class="cls-2" d="M378.23,283.88V254.47H396v3H381.51v9.24h8.4v3h-8.4V280.9h15.12v3Z" transform="translate(-195.76 -192.37)"/><path class="cls-2" d="M425.61,283.88l-12.85-20.12c-.63-1-1.72-2.94-2.1-3.7v23.82H407.5V254.47h3.19L423.42,275c.63,1,1.72,2.94,2.1,3.7v-24.2h3.15v29.41Z" transform="translate(-195.76 -192.37)"/><path class="cls-2" d="M451.14,257.46v26.42h-3.28V257.46h-8.65v-3H459.8v3Z" transform="translate(-195.76 -192.37)"/><path class="cls-2" d="M484.2,271.11l6.47,12.77h-3.78l-6.3-12.52h-7v12.52h-3.28V254.47H482c5.17,0,9.16,2.65,9.16,8.32C491.13,267.37,488.4,270.23,484.2,271.11Zm-2.35-13.65h-8.23v11h7.81c4.37,0,6.43-1.81,6.43-5.5S485.75,257.46,481.85,257.46Z" transform="translate(-195.76 -192.37)"/><path class="cls-2" d="M501.76,283.88V254.47h17.77v3H505v9.24h8.4v3H505V280.9h15.12v3Z" transform="translate(-195.76 -192.37)"/><path class="cls-2" d="M201.86,312.13h-6v-16.8H202c2.66,0,4.56,1.32,4.56,4.2a3.4,3.4,0,0,1-2.42,3.43,4,4,0,0,1,3.22,4.2C207.34,310.47,205.39,312.13,201.86,312.13Zm0-15.1h-4.2v5.23h4.06c2.09,0,2.9-1.2,2.9-2.66S203.78,297,201.91,297Zm0,6.91h-4.18v6.48H202c2.52,0,3.48-1.25,3.48-3.17C205.46,305.15,204.07,303.95,201.89,303.95Z" transform="translate(-195.76 -192.37)"/><path class="cls-2" d="M218.28,312.13v-1.54a4.07,4.07,0,0,1-3.48,1.8c-2.66,0-4.42-1.56-4.42-5.18v-7.68h1.8v7.37c0,2.71,1,3.94,3,3.94,1.75,0,3.12-1.18,3.12-3.94v-7.37h1.8v12.6Z" transform="translate(-195.76 -192.37)"/><path class="cls-2" d="M227.54,312.39a7.07,7.07,0,0,1-4.44-1.61l1.06-1.32a5.18,5.18,0,0,0,3.43,1.39c1.73,0,2.54-.72,2.54-1.94,0-1-.74-1.61-3-2.57-2.52-1.08-3.58-1.85-3.58-3.86s1.66-3.22,3.94-3.22a6.2,6.2,0,0,1,4,1.34l-1,1.32a4.56,4.56,0,0,0-3.14-1.13c-1.32,0-2.09.65-2.09,1.56s.65,1.49,2.78,2.45c2.38,1.08,3.77,1.78,3.77,4C231.86,311.31,229.72,312.39,227.54,312.39Z" transform="translate(-195.76 -192.37)"/><path class="cls-2" d="M236.32,297.27a1.28,1.28,0,1,1,1.25-1.27A1.28,1.28,0,0,1,236.32,297.27Zm-.94,14.86v-12.6h1.8v12.6Z" transform="translate(-195.76 -192.37)"/><path class="cls-2" d="M249.19,312.13v-7.37c0-2.71-1-3.94-3-3.94-1.75,0-3.12,1.18-3.12,3.94v7.37h-1.8v-12.6h1.8v1.54a4.07,4.07,0,0,1,3.48-1.8c2.66,0,4.42,1.56,4.42,5.18v7.68Z" transform="translate(-195.76 -192.37)"/><path class="cls-2" d="M264.43,306.44H256c.17,2.69,1.44,4.39,3.5,4.39a5.62,5.62,0,0,0,3.48-1.2l.84,1.3a7.46,7.46,0,0,1-4.51,1.46c-2.3,0-5.11-1.68-5.11-6.62,0-4,2.21-6.5,5.21-6.5,3.29,0,5.06,2.59,5.06,6.19A5.52,5.52,0,0,1,264.43,306.44Zm-5-5.62c-1.87,0-3.17,1.34-3.38,4.15h6.79C262.68,302.53,261.62,300.83,259.41,300.83Z" transform="translate(-195.76 -192.37)"/><path class="cls-2" d="M271.1,312.39a7.07,7.07,0,0,1-4.44-1.61l1.06-1.32a5.18,5.18,0,0,0,3.43,1.39c1.73,0,2.54-.72,2.54-1.94,0-1-.74-1.61-3-2.57-2.52-1.08-3.58-1.85-3.58-3.86s1.66-3.22,3.94-3.22a6.2,6.2,0,0,1,4,1.34l-1,1.32A4.56,4.56,0,0,0,271,300.8c-1.32,0-2.09.65-2.09,1.56s.65,1.49,2.78,2.45c2.38,1.08,3.77,1.78,3.77,4C275.42,311.31,273.28,312.39,271.1,312.39Z" transform="translate(-195.76 -192.37)"/><path class="cls-2" d="M282.07,312.39a7.07,7.07,0,0,1-4.44-1.61l1.06-1.32a5.18,5.18,0,0,0,3.43,1.39c1.73,0,2.54-.72,2.54-1.94,0-1-.74-1.61-3-2.57-2.52-1.08-3.58-1.85-3.58-3.86s1.66-3.22,3.94-3.22a6.2,6.2,0,0,1,4,1.34l-1,1.32a4.56,4.56,0,0,0-3.14-1.13c-1.32,0-2.09.65-2.09,1.56s.65,1.49,2.78,2.45c2.38,1.08,3.77,1.78,3.77,4C286.39,311.31,284.25,312.39,282.07,312.39Z" transform="translate(-195.76 -192.37)"/><path class="cls-2" d="M296.37,312.13v-16.8h1.87v16.8Z" transform="translate(-195.76 -192.37)"/><path class="cls-2" d="M317.2,312.13v-7.37c0-2.88-.89-3.94-2.71-3.94s-2.81,1.15-2.81,3.94v7.37h-1.8v-7.37c0-2.88-1-3.94-2.71-3.94s-2.81,1.15-2.81,3.94v7.37h-1.8v-12.6h1.8v1.54a3.56,3.56,0,0,1,3.19-1.8,3.67,3.67,0,0,1,3.46,2.16,4.1,4.1,0,0,1,3.82-2.16c2.57,0,4.18,1.51,4.18,5.18v7.68Z" transform="translate(-195.76 -192.37)"/><path class="cls-2" d="M328.27,312.39a4.48,4.48,0,0,1-3.55-1.68v5l-1.8,1V299.53h1.8v1.54a5,5,0,0,1,3.79-1.8c2.52,0,4.51,1.92,4.51,6.36S330.91,312.39,328.27,312.39Zm-.22-11.57a4.28,4.28,0,0,0-3.34,1.82v6.29a4.12,4.12,0,0,0,3.41,1.9c2.09,0,3.12-1.8,3.12-5.18C331.24,302.48,330,300.83,328.05,300.83Z" transform="translate(-195.76 -192.37)"/><path class="cls-2" d="M342.76,301.4a3.56,3.56,0,0,0-1.9-.48c-1.75,0-2.74,1.42-2.74,3.82v7.39h-1.8v-12.6h1.8v1.56a3.69,3.69,0,0,1,3.12-1.82,4.82,4.82,0,0,1,2,.31Z" transform="translate(-195.76 -192.37)"/><path class="cls-2" d="M350.25,312.39c-3.07,0-5.42-2.28-5.42-6.55s2.45-6.58,5.52-6.58,5.42,2.21,5.42,6.48S353.33,312.39,350.25,312.39Zm0-11.57c-2.18,0-3.65,1.66-3.65,5s1.46,5,3.65,5,3.67-1.73,3.67-5S352.49,300.83,350.3,300.83Z" transform="translate(-195.76 -192.37)"/><path class="cls-2" d="M363.72,312.13h-1.58l-4.51-12.6h1.92l3.22,9.91.19.6.19-.6,3.22-9.91h1.87Z" transform="translate(-195.76 -192.37)"/><path class="cls-2" d="M380.27,306.44h-8.4c.17,2.69,1.44,4.39,3.51,4.39a5.61,5.61,0,0,0,3.48-1.2l.84,1.3a7.47,7.47,0,0,1-4.51,1.46c-2.3,0-5.11-1.68-5.11-6.62,0-4,2.21-6.5,5.21-6.5,3.29,0,5.06,2.59,5.06,6.19A5.42,5.42,0,0,1,380.27,306.44Zm-5-5.62c-1.87,0-3.17,1.34-3.38,4.15h6.79C378.52,302.53,377.47,300.83,375.26,300.83Z" transform="translate(-195.76 -192.37)"/><path class="cls-2" d="M398.35,312.13v-7.37c0-2.88-.89-3.94-2.71-3.94s-2.81,1.15-2.81,3.94v7.37H391v-7.37c0-2.88-1-3.94-2.71-3.94s-2.81,1.15-2.81,3.94v7.37h-1.8v-12.6h1.8v1.54a3.56,3.56,0,0,1,3.19-1.8,3.67,3.67,0,0,1,3.46,2.16,4.1,4.1,0,0,1,3.82-2.16c2.57,0,4.18,1.51,4.18,5.18v7.68Z" transform="translate(-195.76 -192.37)"/><path class="cls-2" d="M413.59,306.44h-8.4c.17,2.69,1.44,4.39,3.5,4.39a5.61,5.61,0,0,0,3.48-1.2l.84,1.3a7.46,7.46,0,0,1-4.51,1.46c-2.3,0-5.11-1.68-5.11-6.62,0-4,2.21-6.5,5.21-6.5,3.29,0,5.06,2.59,5.06,6.19A5.42,5.42,0,0,1,413.59,306.44Zm-5-5.62c-1.87,0-3.17,1.34-3.38,4.15H412C411.83,302.53,410.78,300.83,408.57,300.83Z" transform="translate(-195.76 -192.37)"/><path class="cls-2" d="M424.91,312.13v-7.37c0-2.71-1-3.94-3-3.94-1.75,0-3.12,1.18-3.12,3.94v7.37H417v-12.6h1.8v1.54a4.08,4.08,0,0,1,3.48-1.8c2.66,0,4.42,1.56,4.42,5.18v7.68Z" transform="translate(-195.76 -192.37)"/><path class="cls-2" d="M432.81,301v8.21c0,1.13.31,1.51,1.27,1.51a4.19,4.19,0,0,0,1.78-.36l-.12,1.56a5.68,5.68,0,0,1-2.33.43c-1.56,0-2.4-.77-2.4-2.86V301h-1.56v-1.51H431v-3.89l1.8-1v4.9h3.12V301Z" transform="translate(-195.76 -192.37)"/><path class="cls-2" d="M450,312.13h-4.11v-16.8h4.44c4.42,0,7.66,2.52,7.66,8.28C458,309.71,454.48,312.13,450,312.13Zm.19-15.1h-2.42v13.39h2.47c3.62,0,5.88-1.92,5.88-6.74C456.12,299.39,454.05,297,450.19,297Z" transform="translate(-195.76 -192.37)"/><path class="cls-2" d="M462.52,297.27a1.28,1.28,0,1,1,1.25-1.27A1.28,1.28,0,0,1,462.52,297.27Zm-.94,14.86v-12.6h1.8v12.6Z" transform="translate(-195.76 -192.37)"/><path class="cls-2" d="M471,312.39a7.06,7.06,0,0,1-4.44-1.61l1.05-1.32a5.18,5.18,0,0,0,3.43,1.39c1.73,0,2.54-.72,2.54-1.94,0-1-.74-1.61-3-2.57-2.52-1.08-3.58-1.85-3.58-3.86s1.66-3.22,3.94-3.22a6.19,6.19,0,0,1,4,1.34l-1,1.32a4.56,4.56,0,0,0-3.14-1.13c-1.32,0-2.09.65-2.09,1.56s.65,1.49,2.79,2.45c2.37,1.08,3.77,1.78,3.77,4C475.29,311.31,473.15,312.39,471,312.39Z" transform="translate(-195.76 -192.37)"/><path class="cls-2" d="M480.76,301v8.21c0,1.13.31,1.51,1.27,1.51a4.19,4.19,0,0,0,1.78-.36l-.12,1.56a5.69,5.69,0,0,1-2.33.43c-1.56,0-2.4-.77-2.4-2.86V301H477.4v-1.51H479v-3.89l1.8-1v4.9h3.12V301Z" transform="translate(-195.76 -192.37)"/><path class="cls-2" d="M493.82,301.4a3.56,3.56,0,0,0-1.9-.48c-1.75,0-2.74,1.42-2.74,3.82v7.39h-1.8v-12.6h1.8v1.56a3.7,3.7,0,0,1,3.12-1.82,4.83,4.83,0,0,1,2,.31Z" transform="translate(-195.76 -192.37)"/><path class="cls-2" d="M498.21,297.27a1.28,1.28,0,1,1,1.25-1.27A1.27,1.27,0,0,1,498.21,297.27Zm-.94,14.86v-12.6h1.8v12.6Z" transform="translate(-195.76 -192.37)"/><path class="cls-2" d="M510.57,302.1a4.19,4.19,0,0,0-3-1.27c-2,0-3.48,1.78-3.48,4.92s1.32,5.09,3.55,5.09a3.9,3.9,0,0,0,2.9-1.34l1.08,1.15a5.32,5.32,0,0,1-4.05,1.75c-2.76,0-5.3-2.11-5.3-6.5,0-4.66,2.78-6.62,5.42-6.62a5.86,5.86,0,0,1,4,1.49Z" transform="translate(-195.76 -192.37)"/><path class="cls-2" d="M517.09,301v8.21c0,1.13.31,1.51,1.27,1.51a4.19,4.19,0,0,0,1.78-.36L520,312a5.67,5.67,0,0,1-2.33.43c-1.56,0-2.4-.77-2.4-2.86V301h-1.56v-1.51h1.56v-3.89l1.8-1v4.9h3.12V301Z" transform="translate(-195.76 -192.37)"/></svg>