<svg xmlns="http://www.w3.org/2000/svg" viewBox="0 0 512 512" enable-background="new 0 0 512 512"><circle cx="256" cy="256" r="150.069" fill="#00C3FF"/><path d="M293.517 381.057c-82.881 0-150.069-67.189-150.069-150.069 0-43.994 19.048-83.441 49.208-110.89-51.18 23.901-86.726 75.688-86.726 135.902 0 82.88 67.188 150.069 150.069 150.069 38.888 0 74.204-14.918 100.863-39.181-19.265 8.998-40.678 14.169-63.345 14.169z" fill="#00AAF0"/><g fill="#E4EAF8"><path d="M256 0c-73.03 0-141.219 30.52-189.756 84.237l4.29-30.023c.69-4.828-2.664-9.302-7.491-9.992-4.845-.655-9.302 2.664-9.992 7.491l-8.828 61.793c-.431 3.034.733 6.069 3.086 8.025 1.612 1.346 3.62 2.054 5.655 2.054.94 0 1.879-.147 2.793-.457l52.966-17.655c4.621-1.535 7.121-6.535 5.578-11.164-1.535-4.621-6.492-7.129-11.164-5.578l-24.606 8.202c45.241-50.55 109.084-79.278 177.469-79.278 131.423 0 238.345 106.922 238.345 238.345 0 35.75-7.715 70.112-22.931 102.146-2.094 4.396-.215 9.664 4.19 11.758 1.216.577 2.508.853 3.776.853 3.302 0 6.474-1.863 7.982-5.043 16.344-34.412 24.638-71.326 24.638-109.714 0-141.155-114.845-256-256-256zM456.242 388.871l-52.966 17.655c-4.621 1.535-7.121 6.535-5.578 11.164 1.535 4.621 6.508 7.129 11.164 5.578l24.522-8.174c-45.21 50.548-108.834 79.252-177.384 79.252-131.423-.001-238.345-106.923-238.345-238.346 0-35.75 7.715-70.112 22.931-102.146 2.094-4.396.215-9.664-4.19-11.758-4.38-2.078-9.673-.207-11.758 4.19-16.344 34.412-24.638 71.326-24.638 109.714 0 141.155 114.845 256 256 256 73.251 0 141.259-30.524 189.764-84.296l-4.299 30.08c-.69 4.828 2.664 9.302 7.491 9.992.423.061.845.086 1.259.086 4.328 0 8.104-3.172 8.733-7.577l8.828-61.793c.431-3.034-.733-6.069-3.086-8.025-2.354-1.967-5.543-2.562-8.448-1.596z"/></g><g fill="#fff"><circle cx="256" cy="176.552" r="17.655"/><path d="M273.655 326.621v-97.103c4.879 0 8.828-3.948 8.828-8.828s-3.948-8.828-8.828-8.828h-35.31c-4.879 0-8.828 3.948-8.828 8.828s3.948 8.828 8.828 8.828v97.103c-4.879 0-8.828 3.948-8.828 8.828s3.948 8.828 8.828 8.828h35.31c4.879 0 8.828-3.948 8.828-8.828s-3.948-8.828-8.828-8.828z"/></g></svg>